<?xml version="1.0" standalone="no"?>
<!DOCTYPE svg PUBLIC "-//W3C//DTD SVG 20010904//EN"
 "http://www.w3.org/TR/2001/REC-SVG-20010904/DTD/svg10.dtd">
<svg version="1.0" xmlns="http://www.w3.org/2000/svg"
 width="768.000000pt" height="768.000000pt" viewBox="0 0 768.000000 768.000000"
 preserveAspectRatio="xMidYMid meet">
<metadata>
Created by potrace 1.14, written by Peter Selinger 2001-2017
</metadata>
<g transform="translate(0.000000,768.000000) scale(0.100000,-0.100000)"
fill="#000000" stroke="none">
<path d="M6041 7624 c-13 -29 -6 -47 9 -24 9 14 14 50 7 50 -2 0 -9 -12 -16
-26z"/>
<path d="M5972 7589 c1 -12 9 -24 16 -27 9 -3 13 3 10 19 -1 12 -9 24 -16 27
-9 3 -13 -3 -10 -19z"/>
<path d="M5898 7565 c3 -18 0 -25 -12 -25 -9 0 -16 -4 -16 -9 0 -4 -27 -20
-60 -34 -62 -28 -73 -41 -41 -52 13 -4 21 -17 23 -38 3 -29 21 -42 24 -17 1 6
2 16 3 23 3 17 31 -64 31 -89 0 -12 6 -27 14 -33 11 -9 15 -2 20 39 7 54 17
62 34 28 11 -23 11 -23 11 -2 1 12 8 38 16 57 18 42 18 47 6 47 -5 0 -15 -16
-21 -35 -14 -41 -27 -45 -36 -10 -4 16 0 34 10 50 9 13 16 31 16 40 0 8 9 24
20 35 25 25 25 30 1 30 -11 0 -23 5 -26 10 -12 19 -22 10 -17 -15z"/>
<path d="M5740 7552 c-8 -9 -19 -30 -25 -46 -11 -32 -35 -47 -35 -22 0 11 -9
16 -30 16 -27 0 -30 -3 -30 -31 0 -26 3 -31 20 -26 11 3 20 2 20 -2 0 -13 -95
-105 -163 -159 -37 -29 -67 -59 -67 -68 0 -9 -20 -35 -45 -60 -42 -40 -63 -71
-30 -44 8 6 18 9 23 6 5 -3 15 6 22 19 7 14 17 25 21 25 5 0 17 10 29 22 17
18 20 19 20 5 0 -10 -6 -26 -12 -37 -11 -17 -10 -22 2 -30 24 -15 34 -6 41 33
3 20 13 45 22 55 10 10 17 24 17 30 0 7 3 12 8 12 4 0 16 16 26 35 14 26 25
35 40 33 17 -2 21 2 18 23 -2 18 6 34 24 50 42 37 76 72 117 119 35 40 37 45
20 51 -27 11 -37 10 -53 -9z"/>
<path d="M6017 7562 c-5 -8 1 -24 17 -43 16 -18 26 -25 26 -16 0 8 -6 17 -14
20 -8 3 -16 16 -18 29 -2 16 -5 19 -11 10z"/>
<path d="M6386 7538 c-9 -12 -16 -29 -16 -37 0 -8 -6 -22 -13 -30 -7 -9 -19
-29 -25 -44 -11 -26 -11 -28 8 -22 36 11 22 -25 -38 -102 l-33 -43 21 -66 c11
-36 20 -79 20 -96 0 -40 17 -68 40 -68 11 0 30 -16 44 -36 20 -30 32 -37 63
-40 24 -2 43 -11 52 -24 16 -23 31 -26 31 -6 0 7 7 19 15 26 17 14 21 90 5 90
-5 0 -10 25 -10 55 0 46 -3 55 -18 55 -10 0 -24 6 -30 12 -10 10 -14 8 -18
-10 -4 -12 -10 -19 -15 -16 -10 6 -1 84 12 99 5 5 9 16 9 24 0 10 -11 4 -33
-17 -18 -18 -38 -32 -45 -32 -7 0 -12 -7 -12 -15 0 -8 -5 -15 -11 -15 -8 0 -9
18 -4 63 4 34 8 69 8 77 0 8 11 32 24 52 28 46 29 50 2 46 -37 -5 -46 24 -25
82 20 56 17 74 -8 38z"/>
<path d="M2387 7424 c-4 -4 -7 -14 -7 -23 0 -11 3 -12 11 -4 6 6 10 16 7 23
-2 6 -7 8 -11 4z"/>
<path d="M6046 7369 c-14 -67 -16 -99 -7 -99 10 0 27 107 18 117 -3 3 -8 -5
-11 -18z"/>
<path d="M5982 7355 c-7 -14 -12 -32 -12 -40 0 -8 -4 -15 -10 -15 -15 0 -12
-26 5 -40 22 -19 32 -4 40 63 7 60 -4 75 -23 32z"/>
<path d="M5915 7170 c-3 -5 -1 -10 4 -10 6 0 11 5 11 10 0 6 -2 10 -4 10 -3 0
-8 -4 -11 -10z"/>
<path d="M5945 7130 c-3 -5 1 -10 9 -10 8 0 18 5 21 10 3 6 -1 10 -9 10 -8 0
-18 -4 -21 -10z"/>
<path d="M2486 7108 c-9 -13 -31 -29 -49 -38 -23 -11 -32 -22 -32 -40 0 -36
24 -35 72 2 33 25 40 35 31 45 -8 10 -8 17 0 25 7 7 12 16 12 20 0 16 -19 8
-34 -14z"/>
<path d="M5852 7060 c0 -14 2 -19 5 -12 2 6 2 18 0 25 -3 6 -5 1 -5 -13z"/>
<path d="M2541 6992 c-7 -13 -10 -31 -8 -40 3 -13 7 -10 16 12 15 37 9 59 -8
28z"/>
<path d="M6166 6948 c-11 -15 -12 -24 -5 -29 16 -9 62 4 65 19 1 7 0 8 -3 2
-7 -15 -23 -12 -23 4 0 25 -18 27 -34 4z"/>
<path d="M5595 6920 c-3 -5 -2 -10 4 -10 5 0 13 5 16 10 3 6 2 10 -4 10 -5 0
-13 -4 -16 -10z"/>
<path d="M5972 6839 c-10 -15 -11 -24 -3 -32 8 -8 11 -5 11 9 0 11 5 25 12 32
7 7 8 12 2 12 -5 0 -15 -10 -22 -21z"/>
<path d="M1646 6762 c-3 -6 1 -15 8 -21 8 -7 17 -8 20 -3 3 6 -1 15 -8 21 -8
7 -17 8 -20 3z"/>
<path d="M6615 6760 c-3 -5 -1 -10 4 -10 6 0 11 5 11 10 0 6 -2 10 -4 10 -3 0
-8 -4 -11 -10z"/>
<path d="M1510 6716 c0 -8 4 -17 9 -20 5 -4 7 3 4 14 -6 23 -13 26 -13 6z"/>
<path d="M5247 6703 c-13 -13 -7 -21 13 -16 11 3 20 9 20 14 0 10 -24 12 -33
2z"/>
<path d="M6260 6661 c0 -31 20 -36 44 -11 l21 22 -22 -7 c-14 -4 -23 -2 -23 4
0 6 -4 11 -10 11 -5 0 -10 -9 -10 -19z"/>
<path d="M5220 6660 c0 -5 5 -10 10 -10 6 0 10 5 10 10 0 6 -4 10 -10 10 -5 0
-10 -4 -10 -10z"/>
<path d="M7480 6650 c0 -5 5 -10 11 -10 5 0 7 5 4 10 -3 6 -8 10 -11 10 -2 0
-4 -4 -4 -10z"/>
<path d="M6732 6608 c5 -15 28 -18 29 -3 0 6 -7 12 -17 13 -10 3 -15 -1 -12
-10z"/>
<path d="M6935 6529 c-10 -15 3 -25 16 -12 7 7 7 13 1 17 -6 3 -14 1 -17 -5z"/>
<path d="M4177 6503 c-3 -5 -2 -15 2 -22 7 -10 10 -10 16 -1 4 6 3 16 -3 22
-5 5 -12 6 -15 1z"/>
<path d="M6672 6499 c2 -6 8 -10 13 -10 5 0 11 4 13 10 2 6 -4 11 -13 11 -9 0
-15 -5 -13 -11z"/>
<path d="M4529 6403 c14 -3 35 -12 49 -21 l24 -15 -27 -15 c-54 -28 -123 -26
-245 6 -123 33 -170 34 -222 7 -43 -23 -104 -38 -150 -37 -26 0 -38 -4 -38
-14 0 -11 -19 -14 -87 -14 -70 0 -93 -4 -112 -19 -14 -10 -32 -17 -40 -14 -14
4 -14 3 -1 -5 12 -9 10 -12 -11 -20 -14 -6 -31 -17 -38 -26 -8 -10 -27 -15
-51 -14 -20 0 -42 -2 -48 -6 -19 -12 -47 27 -49 68 -2 38 -28 80 -44 70 -12
-7 -11 3 1 27 8 15 7 19 -4 19 -7 0 -17 -7 -20 -16 -4 -10 -14 -14 -26 -11
-14 4 -20 0 -20 -11 0 -14 -2 -14 -9 -3 -7 10 -16 3 -37 -29 -26 -39 -29 -51
-27 -114 2 -39 7 -72 13 -74 14 -5 13 -42 -1 -42 -6 0 -8 -7 -5 -16 10 -26 -2
-34 -34 -22 -24 8 -30 16 -30 39 0 20 -5 29 -16 29 -11 0 -14 -5 -9 -17 3 -10
7 -22 8 -26 1 -5 -25 -10 -58 -12 -61 -2 -99 -17 -145 -55 l-25 -21 30 3 c25
2 31 -1 33 -19 2 -15 -2 -23 -11 -23 -8 0 -39 -28 -68 -62 -66 -75 -116 -124
-149 -145 -30 -18 -120 -127 -120 -144 0 -7 -11 -27 -25 -45 -14 -18 -25 -40
-25 -48 0 -9 -9 -25 -20 -36 -11 -11 -20 -26 -20 -33 0 -8 -16 -36 -35 -63
-51 -72 -68 -141 -61 -244 6 -81 4 -93 -43 -254 l-48 -170 18 -65 c36 -124 24
-179 -35 -167 -16 4 -38 13 -48 22 -10 10 -26 14 -40 11 -12 -4 -27 -2 -32 2
-6 5 -36 11 -66 15 -30 3 -62 7 -71 9 -8 1 -28 16 -44 32 -15 17 -26 22 -22
13 5 -14 -3 -18 -49 -24 -30 -3 -58 -4 -61 0 -3 3 -12 1 -19 -5 -18 -15 -82
-1 -87 20 -4 13 -5 13 -6 -2 -1 -14 -6 -17 -22 -12 -12 4 -38 9 -58 11 -20 1
-48 6 -63 9 -19 5 -36 0 -64 -19 -44 -30 -116 -35 -148 -11 -21 16 -96 21 -96
7 0 -4 5 -13 11 -19 17 -17 -4 -24 -84 -27 -54 -2 -81 1 -109 15 -23 12 -39
15 -43 9 -3 -6 -17 -10 -29 -10 -29 0 -96 -27 -96 -39 0 -5 -14 -11 -30 -15
-20 -4 -34 -14 -40 -31 -8 -21 -16 -26 -37 -23 -25 3 -28 9 -39 61 -9 48 -9
57 2 53 18 -7 30 34 13 44 -16 10 -62 -25 -77 -60 -6 -14 -14 -54 -16 -89 -6
-71 -16 -84 -61 -76 -16 3 -25 2 -19 -3 19 -13 26 -59 9 -66 -8 -3 -15 -12
-15 -21 0 -8 -7 -15 -15 -15 -17 0 -49 -45 -41 -58 2 -4 -15 -24 -39 -43 -46
-35 -67 -70 -46 -77 16 -5 14 -23 -9 -70 -12 -24 -19 -46 -17 -50 3 -4 -6 -29
-18 -57 l-24 -50 27 -5 c20 -4 28 -12 29 -30 4 -55 10 -96 16 -112 4 -10 9
-24 11 -31 2 -8 20 -21 39 -30 19 -9 37 -23 40 -31 4 -11 16 -13 40 -9 l34 5
27 -98 c28 -98 54 -146 107 -194 20 -18 29 -37 32 -70 5 -50 25 -101 44 -113
7 -4 20 -22 28 -40 9 -18 22 -43 31 -57 10 -17 14 -42 11 -77 -3 -41 0 -57 14
-69 10 -9 21 -29 24 -46 4 -16 14 -32 23 -35 44 -15 101 -59 96 -74 -3 -11 10
-20 47 -31 28 -9 57 -14 65 -11 8 3 16 -2 19 -11 17 -55 15 -53 26 -33 14 25
33 21 66 -13 15 -17 35 -30 43 -30 9 0 26 -7 39 -16 17 -12 47 -17 112 -18 74
-1 90 -4 94 -17 3 -10 12 -20 20 -23 8 -3 15 -17 15 -32 0 -20 3 -24 13 -16
15 13 57 -18 57 -43 0 -9 11 -28 25 -43 13 -15 38 -42 55 -60 16 -18 37 -32
46 -30 25 5 54 -42 62 -98 8 -54 24 -58 27 -6 4 59 45 70 65 17 5 -14 16 -25
25 -25 8 0 15 -4 15 -9 0 -5 10 -13 23 -16 12 -4 36 -19 52 -34 75 -66 135
-103 215 -131 59 -21 99 -40 106 -51 7 -12 75 -44 87 -41 10 3 47 -36 47 -49
0 -6 9 -8 20 -4 11 3 20 2 20 -3 0 -5 10 -20 23 -34 12 -13 33 -41 47 -61 19
-27 32 -37 53 -37 15 0 27 -4 27 -10 0 -5 8 -10 18 -10 10 0 28 -7 40 -16 12
-8 26 -13 30 -10 4 2 25 -13 47 -35 21 -21 43 -39 48 -39 6 0 25 -11 43 -25
18 -14 46 -25 62 -25 16 0 31 -3 35 -6 3 -4 24 -8 47 -9 23 -2 46 -8 53 -13 7
-6 57 -13 112 -15 55 -3 108 -8 118 -12 11 -5 17 -2 17 6 0 10 15 14 53 14 94
-1 280 29 306 49 7 5 22 15 34 21 43 22 31 35 -35 37 -148 5 -193 14 -246 50
-23 16 -47 26 -54 22 -7 -4 -8 -3 -4 4 8 14 -14 52 -31 52 -7 0 -13 9 -13 19
0 11 -4 23 -10 26 -5 3 -10 17 -10 29 0 13 -6 29 -14 36 -17 13 -66 154 -66
187 0 12 -5 23 -11 25 -6 2 -20 25 -30 52 l-18 48 27 -7 c15 -3 40 -13 56 -21
16 -8 31 -14 33 -14 7 0 -1 65 -10 77 -10 13 -1 33 14 33 6 0 7 -4 4 -10 -8
-12 15 -13 34 -1 12 8 9 11 -12 16 -31 8 -36 24 -7 22 11 -1 20 -4 20 -7 0 -3
16 -7 35 -8 40 -3 45 7 14 26 -13 8 -18 17 -12 23 11 11 4 79 -8 79 -5 0 -12
-7 -15 -15 -4 -8 -10 -15 -15 -15 -4 0 -6 7 -3 15 7 18 -7 20 -24 3 -18 -18
-40 8 -44 52 -3 32 0 35 24 38 22 3 30 -2 40 -22 8 -18 17 -25 29 -21 9 3 20
1 24 -5 11 -18 23 -11 18 11 -5 19 -2 20 53 19 33 -1 79 -1 104 0 l45 2 -60
14 c-33 8 -69 18 -80 24 -11 5 -33 11 -50 12 -21 2 -30 8 -29 20 1 10 -4 14
-12 11 -8 -3 -14 0 -14 7 0 7 -7 10 -15 6 -8 -3 -30 3 -47 13 -18 11 -65 25
-105 32 -39 7 -70 16 -67 20 2 4 -2 12 -10 18 -10 9 -15 8 -20 -4 -4 -12 -10
-13 -24 -6 -19 10 -55 8 -85 -4 -13 -6 -16 -3 -11 9 4 11 2 15 -7 11 -8 -3
-14 -20 -14 -42 0 -27 5 -38 22 -44 11 -4 24 -13 28 -19 8 -14 141 -100 154
-100 5 0 14 -15 22 -32 7 -18 18 -36 23 -40 18 -12 -9 -43 -35 -42 -13 1 -27
-4 -31 -10 -6 -8 -8 -7 -8 2 0 6 -7 12 -15 12 -9 0 -15 -10 -15 -26 0 -16 4
-23 12 -18 7 4 8 3 4 -5 -4 -6 -1 -25 8 -41 11 -24 12 -38 4 -60 -5 -17 -13
-30 -18 -30 -4 0 -28 22 -53 50 -25 27 -49 50 -54 50 -5 0 -16 12 -25 27 -9
16 -42 57 -72 93 -31 36 -56 70 -56 77 0 6 -5 13 -11 15 -12 4 -44 114 -54
183 -6 45 -9 63 -17 85 -9 23 -27 120 -33 173 -2 27 -7 53 -11 58 -3 6 0 16 6
24 6 8 9 19 5 26 -4 6 -2 23 5 37 7 15 17 38 22 52 6 14 17 38 25 55 13 27 13
30 -4 42 -11 9 -17 24 -15 42 2 16 -4 35 -12 44 -17 16 -22 38 -8 35 11 -2 46
14 54 26 4 5 -1 15 -10 22 -13 9 -14 15 -4 26 9 11 9 17 0 26 -9 9 -9 12 1 12
8 0 11 10 8 30 -4 22 -1 31 14 35 10 4 19 10 19 15 0 10 48 24 72 21 10 -1 27
3 38 9 16 9 25 8 36 0 11 -10 20 -8 41 6 47 32 72 43 78 35 2 -5 30 -11 62
-14 32 -4 81 -18 108 -31 40 -20 51 -22 53 -10 10 44 52 -24 52 -85 0 -49 -14
-84 -56 -137 -31 -39 -32 -43 -27 -115 4 -66 2 -79 -21 -119 -86 -151 -126
-246 -126 -296 0 -45 29 -67 150 -115 58 -23 145 -29 214 -15 l39 8 -24 16
c-13 9 -51 43 -84 76 l-60 59 1 86 c1 92 22 250 36 266 4 5 8 17 8 28 0 10 5
15 10 12 9 -6 15 38 11 73 -1 8 2 19 7 25 15 18 34 164 27 200 -4 18 -14 48
-23 67 -9 19 -16 42 -16 50 -1 8 -29 29 -63 45 -34 17 -63 36 -63 43 0 6 -7
12 -15 12 -8 0 -15 5 -15 10 0 6 -9 10 -19 10 -10 0 -21 7 -25 15 -3 8 -14 15
-25 15 -10 0 -21 6 -24 14 -3 8 -45 26 -94 41 -48 15 -96 33 -107 41 -11 8
-33 14 -48 14 -16 0 -28 4 -28 10 0 5 -18 13 -40 16 -22 4 -40 10 -40 15 0 5
-11 9 -24 9 -19 0 -23 4 -19 19 3 10 -2 21 -10 24 -10 4 -13 0 -10 -12 3 -10
-1 -21 -9 -23 -10 -4 -12 5 -10 41 2 25 8 50 13 55 5 6 9 18 9 27 0 18 17 35
26 26 3 -3 1 -14 -5 -25 -8 -15 -7 -21 4 -25 9 -4 15 2 18 16 4 21 4 21 6 -2
1 -17 5 -21 17 -17 9 3 18 6 20 6 2 0 4 8 4 18 0 10 5 23 12 30 9 9 7 12 -10
12 -14 0 -20 5 -16 14 3 7 -2 16 -10 19 -15 6 -12 41 6 64 6 7 5 20 -2 33 -13
24 -4 42 10 20 5 -8 12 -11 16 -7 4 4 0 15 -9 25 -19 21 -23 42 -5 24 7 -7 15
-12 18 -12 8 0 6 37 -3 46 -3 4 3 18 13 32 24 30 26 46 4 38 -19 -7 -57 11
-49 25 4 5 10 7 15 4 5 -3 12 -1 15 5 4 6 16 8 27 5 12 -4 27 0 40 11 18 17
20 17 29 2 14 -25 51 -8 60 27 5 15 3 52 -3 82 -8 40 -8 57 1 66 8 8 11 6 11
-11 0 -25 10 -28 29 -9 11 10 13 10 7 0 -4 -7 -4 -13 0 -13 16 0 84 34 84 43
0 4 4 6 9 2 6 -3 13 -26 17 -51 5 -34 10 -44 21 -40 8 4 20 3 26 -1 7 -4 17
-8 22 -8 14 0 17 -15 10 -54 l-6 -33 -50 4 c-48 5 -65 -4 -33 -16 39 -15 85
-6 109 22 30 33 33 52 4 27 -20 -19 -20 -19 -9 10 19 55 33 75 50 75 10 0 23
13 30 30 l12 30 19 -24 c16 -20 49 -36 81 -40 4 -1 12 -6 19 -13 24 -24 47 5
75 94 15 49 38 99 50 113 12 14 25 35 29 48 7 23 15 26 50 16 19 -5 20 -14 21
-137 0 -99 5 -141 17 -167 19 -42 66 -100 67 -82 0 17 21 15 35 -4 11 -15 14
-15 38 1 34 22 39 75 7 75 -18 0 -19 6 -15 83 2 45 4 92 4 105 2 40 21 13 21
-29 0 -28 4 -39 15 -39 8 0 15 9 15 20 0 11 6 20 14 20 32 0 52 -59 35 -106
-6 -18 -4 -21 12 -17 10 3 22 16 25 29 9 36 44 32 44 -4 0 -62 -42 -102 -107
-102 -7 0 -13 -7 -13 -15 0 -15 20 -14 69 1 8 3 18 -1 22 -8 6 -9 14 -9 36 2
55 28 83 52 83 71 0 14 7 19 25 19 15 0 25 -6 25 -14 0 -7 7 -20 17 -27 15
-13 16 -9 11 53 -4 45 -2 73 6 84 11 15 15 14 34 -11 12 -15 22 -32 22 -36 0
-16 30 -9 52 10 19 18 22 19 44 5 41 -27 42 -73 5 -157 -11 -27 -21 -58 -21
-68 0 -11 -5 -29 -10 -40 -10 -17 -7 -19 33 -19 24 0 52 7 63 15 32 24 51 17
83 -34 35 -54 68 -87 77 -78 4 4 1 14 -7 24 -11 13 -11 15 -1 9 8 -5 2 14 -12
40 -27 51 -34 111 -16 145 11 20 -3 28 -15 9 -4 -6 -11 -8 -16 -5 -14 9 51 84
68 78 7 -3 20 3 28 13 7 11 17 16 21 12 4 -4 12 -4 18 1 19 15 74 23 81 12 3
-6 15 -11 26 -11 29 0 109 -43 105 -56 -3 -7 1 -20 8 -30 18 -25 39 -150 34
-194 l-4 -35 -8 43 c-5 23 -12 42 -17 42 -12 0 -11 -44 2 -99 10 -46 4 -67
-12 -38 -6 9 -14 17 -18 17 -18 0 -35 -107 -18 -117 4 -2 7 -12 7 -22 0 -10 8
-21 18 -23 17 -5 29 -50 45 -176 4 -25 22 -17 27 13 3 17 8 26 12 20 10 -17
21 -97 20 -152 -1 -72 14 -75 28 -8 15 72 35 68 36 -7 1 -31 4 -72 8 -91 4
-21 2 -38 -4 -42 -6 -3 -8 -11 -4 -16 3 -6 1 -22 -5 -37 -6 -15 -17 -61 -24
-103 -12 -73 -12 -76 8 -85 11 -5 24 -19 30 -31 7 -16 18 -23 36 -23 25 0 27
3 31 54 3 31 13 66 24 81 20 29 33 51 44 75 4 8 13 15 20 15 7 0 15 6 18 13 4
14 5 14 -35 3 -35 -10 -50 -1 -36 22 4 6 9 19 10 27 5 35 30 82 38 71 5 -9 10
-9 21 0 10 8 14 8 14 0 0 -6 -4 -11 -10 -11 -5 0 -10 -18 -10 -40 0 -22 4 -40
9 -40 11 0 21 25 21 50 0 11 8 24 18 29 9 6 13 11 8 11 -6 0 -2 6 8 13 13 10
15 18 8 37 -14 36 7 95 33 95 15 0 20 -7 20 -27 1 -16 6 -33 13 -40 15 -15 16
-32 1 -23 -7 5 -8 -5 -3 -32 8 -45 14 -55 14 -24 0 34 29 71 56 71 32 0 31 18
-1 26 -20 5 -25 13 -25 38 0 17 -5 51 -11 75 -12 53 7 81 55 82 28 0 29 1 10
9 -31 12 -37 27 -16 39 25 13 65 3 58 -15 -6 -16 39 -20 49 -4 8 13 85 6 95
-9 4 -7 13 -11 21 -9 11 2 14 -12 15 -62 1 -36 -3 -67 -7 -70 -4 -3 -4 -23 1
-45 9 -39 35 -68 54 -62 21 7 49 102 50 169 1 47 5 68 14 68 17 0 15 18 -3 22
-9 2 -12 8 -6 17 7 10 13 11 30 2 14 -8 21 -8 21 -1 0 6 -6 13 -14 16 -8 3
-22 21 -31 40 -9 19 -20 34 -25 34 -6 0 -10 5 -10 10 0 6 7 10 15 10 12 0 15
16 14 91 -1 66 3 95 14 107 16 18 12 92 -5 92 -5 0 -8 24 -7 53 2 39 -4 65
-24 102 -33 65 -49 155 -41 226 4 37 2 59 -5 63 -13 8 -15 76 -2 76 5 0 8 38
7 85 -2 82 -8 99 -46 135 -9 9 -40 59 -40 65 0 4 4 4 9 1 14 -9 41 5 41 21 0
7 -12 24 -26 37 -23 19 -25 25 -15 43 17 33 13 68 -9 88 -24 22 -25 31 -5 69
8 15 15 50 15 76 0 48 -29 132 -49 144 -16 10 -13 -16 5 -42 35 -50 41 -162 8
-162 -8 0 -11 -6 -8 -15 6 -16 -4 -19 -29 -9 -13 5 -13 9 1 37 8 18 19 40 24
50 5 11 6 22 3 25 -8 8 -32 -21 -58 -69 l-18 -32 -44 43 c-25 24 -48 53 -51
63 -3 10 -22 34 -42 53 -21 19 -37 38 -38 42 0 4 -4 15 -8 25 -5 10 -2 34 8
57 17 44 21 84 7 76 -5 -3 -12 -21 -15 -41 -8 -43 -24 -53 -32 -20 -3 14 -10
25 -16 25 -5 0 -6 4 -3 10 7 12 -22 70 -35 70 -6 0 -10 -5 -10 -11 0 -5 -4 -7
-10 -4 -5 3 -10 17 -10 30 0 18 -4 22 -19 18 -12 -3 -33 8 -59 31 -22 20 -44
36 -48 36 -9 0 -154 114 -164 129 -17 25 -177 90 -284 115 -32 8 -39 15 -87
88 -17 26 -44 52 -59 58 -15 6 -33 22 -40 35 -7 14 -29 30 -49 36 -20 6 -40
15 -45 20 -6 5 -24 8 -40 8 -27 -2 -28 -2 -7 -6z m96 -96 c7 -7 4 -7 -10 -2
-11 4 -31 7 -45 6 -20 -1 -22 1 -10 9 16 10 49 4 65 -13z m-1171 -80 c21 -62
20 -80 -4 -95 -18 -11 -22 -8 -40 28 -22 43 -26 100 -9 132 10 19 11 19 24 1
7 -10 20 -40 29 -66z m-126 -29 c1 -23 -2 -28 -8 -18 -12 19 -13 50 -2 50 5 0
9 -14 10 -32z m-181 -174 c-3 -3 -12 -4 -19 -1 -8 3 -5 6 6 6 11 1 17 -2 13
-5z m-17 -43 c0 -16 -28 -20 -40 -5 -10 12 -8 14 14 14 14 0 26 -4 26 -9z m65
-1 c-3 -5 -12 -7 -20 -3 -21 7 -19 13 6 13 11 0 18 -4 14 -10z m2632 -766 c-3
-3 -12 -4 -19 -1 -8 3 -5 6 6 6 11 1 17 -2 13 -5z m-307 -345 c0 -6 -4 -7 -10
-4 -5 3 -10 11 -10 16 0 6 5 7 10 4 6 -3 10 -11 10 -16z m-1593 -64 c-4 -8
-14 -15 -23 -15 -16 0 -16 2 1 20 20 22 31 20 22 -5z m248 -36 c8 -23 1 -34
-14 -24 -13 8 -15 45 -2 45 5 0 13 -9 16 -21z m322 -21 c-3 -8 -6 -5 -6 6 -1
11 2 17 5 13 3 -3 4 -12 1 -19z m-297 -43 c0 -14 -4 -25 -9 -25 -12 0 -23 29
-15 41 10 18 24 9 24 -16z m488 2 c22 -26 -12 -127 -34 -104 -8 8 7 117 16
117 4 0 12 -6 18 -13z m-677 -39 c8 -63 4 -198 -5 -195 -14 5 -25 66 -25 145
-1 49 2 62 14 62 8 0 16 -6 16 -12z m574 -7 c3 -5 1 -12 -5 -16 -5 -3 -10 1
-10 9 0 18 6 21 15 7z m1313 -42 c-10 -6 -18 -20 -18 -32 0 -18 -2 -19 -10 -7
-14 22 -12 40 5 40 8 0 15 8 15 17 0 14 2 15 13 4 10 -10 9 -14 -5 -22z m-988
-29 c0 -5 -4 -10 -10 -10 -5 0 -10 5 -10 10 0 6 5 10 10 10 6 0 10 -4 10 -10z
m-33 -18 c10 -7 10 -14 0 -35 -15 -34 -23 -34 -30 0 -8 40 3 52 30 35z m1033
-18 c0 -8 -4 -12 -10 -9 -5 3 -10 10 -10 16 0 5 5 9 10 9 6 0 10 -7 10 -16z
m-1140 -4 c0 -5 -4 -10 -10 -10 -5 0 -10 5 -10 10 0 6 5 10 10 10 6 0 10 -4
10 -10z m282 -52 c-7 -7 -12 -8 -12 -2 0 6 3 14 7 17 3 4 9 5 12 2 2 -3 -1
-11 -7 -17z m-262 -2 c0 -2 -7 -9 -15 -16 -12 -10 -15 -10 -15 4 0 9 7 16 15
16 8 0 15 -2 15 -4z m-1630 -76 c0 -5 -4 -10 -10 -10 -5 0 -10 5 -10 10 0 6 5
10 10 10 6 0 10 -4 10 -10z m2507 -42 c-2 -13 -4 -5 -4 17 -1 22 1 32 4 23 2
-10 2 -28 0 -40z m-450 -26 c14 11 15 10 8 -12 -4 -14 -12 -27 -17 -29 -5 -2
-14 -15 -21 -30 l-11 -26 -4 34 c-2 19 -1 45 3 60 6 23 8 24 17 8 8 -15 12
-16 25 -5z m43 -111 c0 -11 9 -22 19 -26 12 -4 18 -12 14 -21 -7 -19 -23 -18
-39 4 -16 20 -18 62 -4 62 6 0 10 -9 10 -19z m216 -57 c-6 -17 -36 -19 -36 -2
0 6 8 19 18 28 14 14 18 14 20 3 2 -8 1 -21 -2 -29z m-153 -67 c-9 -16 -26 12
-18 30 7 17 8 17 15 -2 4 -11 5 -24 3 -28z m-2369 -152 c-6 -16 -24 -21 -24
-7 0 11 11 22 21 22 5 0 6 -7 3 -15z m2971 -68 c4 -35 1 -45 -8 -41 -11 4 -13
20 -9 78 3 33 13 11 17 -37z m-358 -129 c-3 -8 -6 -5 -6 6 -1 11 2 17 5 13 3
-3 4 -12 1 -19z m23 -42 c0 -17 -14 -29 -23 -20 -8 8 3 34 14 34 5 0 9 -6 9
-14z m345 -6 c3 -5 -1 -10 -10 -10 -9 0 -13 5 -10 10 3 6 8 10 10 10 2 0 7 -4
10 -10z m-2608 -47 c32 -15 69 -30 82 -33 13 -3 26 -11 29 -19 4 -11 -10 -12
-74 -7 -102 8 -292 33 -304 41 -14 9 25 43 57 48 61 11 152 -2 210 -30z m2043
-207 c0 -14 -21 -58 -26 -54 -8 8 7 58 17 58 5 0 9 -2 9 -4z"/>
<path d="M6373 6397 c-18 -10 -20 -15 -9 -29 18 -24 33 -23 41 3 9 28 -5 40
-32 26z"/>
<path d="M5112 6329 c2 -6 8 -10 13 -10 5 0 11 4 13 10 2 6 -4 11 -13 11 -9 0
-15 -5 -13 -11z"/>
<path d="M7585 6279 c-11 -17 1 -21 15 -4 8 9 8 15 2 15 -6 0 -14 -5 -17 -11z"/>
<path d="M4920 6220 c0 -5 5 -10 10 -10 6 0 10 5 10 10 0 6 -4 10 -10 10 -5 0
-10 -4 -10 -10z"/>
<path d="M7565 6200 c-19 -7 -19 -8 -2 -15 10 -4 23 -3 29 3 14 14 -3 21 -27
12z"/>
<path d="M3240 6159 c0 -5 5 -7 10 -4 6 3 10 8 10 11 0 2 -4 4 -10 4 -5 0 -10
-5 -10 -11z"/>
<path d="M3260 6125 c-10 -13 -9 -15 8 -15 15 0 20 5 16 15 -4 8 -7 15 -9 15
-1 0 -8 -7 -15 -15z"/>
<path d="M6210 6048 c-46 -44 -73 -97 -59 -115 6 -7 18 -13 26 -13 8 0 23 -10
34 -22 l19 -23 30 35 c17 19 30 37 30 41 0 4 14 12 30 19 17 7 30 20 30 29 0
9 6 23 13 30 10 10 7 11 -16 5 -23 -5 -29 -3 -34 15 -3 11 -10 21 -17 21 -6 0
-20 3 -31 6 -15 4 -31 -5 -55 -28z"/>
<path d="M6525 6069 c-4 -6 -5 -13 -2 -16 7 -7 27 6 27 18 0 12 -17 12 -25 -2z"/>
<path d="M7630 6072 c0 -5 7 -16 16 -23 14 -12 16 -11 13 5 -4 20 -29 35 -29
18z"/>
<path d="M6451 6006 c-8 -9 -11 -19 -7 -23 9 -9 29 13 24 27 -2 8 -8 7 -17 -4z"/>
<path d="M64 5940 c-17 -17 -4 -68 21 -84 13 -8 39 -17 58 -19 20 -2 42 -9 50
-16 10 -8 17 -8 21 -2 4 6 13 8 21 4 10 -3 15 1 15 11 0 9 -10 20 -22 25 -13
5 -34 21 -48 36 -23 25 -76 55 -98 55 -4 0 -13 -5 -18 -10z"/>
<path d="M270 5856 c0 -3 4 -16 10 -31 7 -17 7 -24 0 -20 -6 3 -10 1 -10 -4 0
-6 4 -11 9 -11 4 0 21 -12 36 -27 23 -23 26 -33 21 -65 -5 -33 -3 -39 27 -62
38 -29 49 -31 77 -14 14 9 27 10 48 2 34 -13 67 -3 74 23 3 11 -2 36 -11 56
-16 38 -31 48 -31 22 0 -21 -50 -16 -76 7 -14 12 -20 27 -17 39 4 12 -1 21
-13 26 -11 4 -26 16 -34 26 -9 10 -28 20 -43 20 -15 1 -27 5 -27 10 0 4 -9 7
-20 7 -11 0 -20 -2 -20 -4z m225 -166 c3 -5 -1 -10 -10 -10 -9 0 -13 5 -10 10
3 6 8 10 10 10 2 0 7 -4 10 -10z m25 -40 c0 -5 -7 -10 -16 -10 -8 0 -12 5 -9
10 3 6 10 10 16 10 5 0 9 -4 9 -10z"/>
<path d="M7573 5634 c-3 -8 -1 -20 6 -27 8 -8 11 -4 11 16 0 30 -7 35 -17 11z"/>
<path d="M7463 5533 c-13 -2 -23 -9 -23 -14 0 -13 13 -11 36 6 10 8 17 14 14
13 -3 0 -15 -3 -27 -5z"/>
<path d="M7595 5500 c-3 -5 -2 -10 4 -10 5 0 13 5 16 10 3 6 2 10 -4 10 -5 0
-13 -4 -16 -10z"/>
<path d="M7407 5493 c-12 -11 -8 -23 8 -23 8 0 15 7 15 15 0 16 -12 20 -23 8z"/>
<path d="M7612 5439 c-12 -18 -12 -24 0 -35 9 -9 18 -10 28 -4 12 8 12 10 1
10 -11 0 -11 3 -1 15 11 14 6 35 -8 35 -4 0 -13 -10 -20 -21z"/>
<path d="M7370 5406 c0 -2 9 -6 20 -9 11 -3 20 -1 20 4 0 5 -9 9 -20 9 -11 0
-20 -2 -20 -4z"/>
<path d="M7545 5360 c-3 -5 -1 -10 4 -10 6 0 11 5 11 10 0 6 -2 10 -4 10 -3 0
-8 -4 -11 -10z"/>
<path d="M7545 5297 c-36 -26 -55 -49 -49 -59 8 -12 44 11 44 28 0 16 30 16
42 -1 12 -16 19 1 12 29 -7 31 -11 32 -49 3z"/>
<path d="M6102 5260 c0 -14 2 -19 5 -12 2 6 2 18 0 25 -3 6 -5 1 -5 -13z"/>
<path d="M7410 5210 c0 -19 3 -21 12 -12 9 9 9 15 0 24 -9 9 -12 7 -12 -12z"/>
<path d="M7480 5149 c0 -5 5 -7 10 -4 6 3 10 8 10 11 0 2 -4 4 -10 4 -5 0 -10
-5 -10 -11z"/>
<path d="M7612 5118 c6 -18 28 -21 28 -4 0 9 -7 16 -16 16 -9 0 -14 -5 -12
-12z"/>
<path d="M7000 5040 c0 -5 7 -10 15 -10 8 0 15 -4 15 -10 0 -5 5 -10 10 -10 6
0 10 9 10 20 0 15 -7 20 -25 20 -14 0 -25 -4 -25 -10z"/>
<path d="M7228 5003 c7 -3 16 -2 19 1 4 3 -2 6 -13 5 -11 0 -14 -3 -6 -6z"/>
<path d="M7615 4919 c-4 -6 -5 -13 -2 -16 7 -7 27 6 27 18 0 12 -17 12 -25 -2z"/>
<path d="M2220 4831 c0 -6 4 -13 10 -16 6 -3 7 1 4 9 -7 18 -14 21 -14 7z"/>
<path d="M7650 4600 c0 -10 -4 -22 -10 -25 -5 -3 -10 -17 -10 -31 0 -22 2 -23
21 -13 14 7 19 17 16 30 -3 10 -1 19 4 19 15 0 10 27 -6 34 -10 3 -15 -1 -15
-14z"/>
<path d="M6790 4590 c0 -5 5 -10 10 -10 6 0 10 5 10 10 0 6 -4 10 -10 10 -5 0
-10 -4 -10 -10z"/>
<path d="M1270 4575 c0 -8 5 -15 10 -15 6 0 10 7 10 15 0 8 -4 15 -10 15 -5 0
-10 -7 -10 -15z"/>
<path d="M260 4521 c0 -12 5 -21 10 -21 6 0 10 6 10 14 0 8 -4 18 -10 21 -5 3
-10 -3 -10 -14z"/>
<path d="M7369 4524 c-12 -14 -11 -16 5 -13 11 2 21 10 24 17 5 17 -13 15 -29
-4z"/>
<path d="M6610 4500 c-12 -23 2 -27 19 -6 8 9 8 16 2 20 -6 4 -15 -3 -21 -14z"/>
<path d="M3536 4495 c-9 -26 -7 -32 5 -12 6 10 9 21 6 23 -2 3 -7 -2 -11 -11z"/>
<path d="M7665 4500 c-3 -5 -1 -10 4 -10 6 0 11 5 11 10 0 6 -2 10 -4 10 -3 0
-8 -4 -11 -10z"/>
<path d="M4095 4490 c3 -5 8 -10 11 -10 2 0 4 5 4 10 0 6 -5 10 -11 10 -5 0
-7 -4 -4 -10z"/>
<path d="M7595 4440 c4 -6 1 -17 -5 -25 -18 -22 -3 -18 20 5 25 25 25 30 -1
30 -11 0 -17 -4 -14 -10z"/>
<path d="M7550 4429 c0 -5 5 -7 10 -4 6 3 10 8 10 11 0 2 -4 4 -10 4 -5 0 -10
-5 -10 -11z"/>
<path d="M7400 4401 c0 -6 5 -13 10 -16 6 -3 10 1 10 9 0 9 -4 16 -10 16 -5 0
-10 -4 -10 -9z"/>
<path d="M6770 4376 c0 -8 -2 -23 -5 -33 -3 -11 -1 -9 6 5 7 12 16 22 21 22 4
0 8 5 8 10 0 6 -7 10 -15 10 -8 0 -15 -6 -15 -14z"/>
<path d="M7552 4378 c-7 -7 -12 -22 -12 -35 0 -18 6 -23 25 -23 23 0 25 3 19
28 -9 36 -18 44 -32 30z"/>
<path d="M7596 4375 c-3 -8 -1 -15 4 -15 6 0 10 7 10 15 0 8 -2 15 -4 15 -2 0
-6 -7 -10 -15z"/>
<path d="M7275 4356 c-16 -11 -16 -14 -2 -19 8 -3 21 0 27 8 15 19 -3 27 -25
11z"/>
<path d="M7330 4362 c0 -4 9 -13 20 -20 11 -6 17 -18 14 -26 -3 -8 -1 -17 5
-20 7 -4 7 -13 2 -24 -5 -9 -15 -30 -22 -47 -7 -16 -15 -34 -17 -38 -2 -5 14
3 37 17 46 30 71 33 71 10 0 -8 5 -12 10 -9 6 4 8 11 4 16 -3 6 3 20 15 33 13
14 18 29 14 44 -5 19 -12 22 -54 22 -41 0 -51 4 -65 25 -16 24 -34 33 -34 17z"/>
<path d="M6725 4350 c-3 -5 -1 -10 4 -10 6 0 11 5 11 10 0 6 -2 10 -4 10 -3 0
-8 -4 -11 -10z"/>
<path d="M6620 4334 c0 -8 5 -12 10 -9 6 3 10 10 10 16 0 5 -4 9 -10 9 -5 0
-10 -7 -10 -16z"/>
<path d="M6800 4276 c0 -7 -7 -19 -15 -26 -16 -13 -21 -40 -7 -40 4 1 19 19
34 40 26 37 27 40 8 40 -11 0 -20 -6 -20 -14z"/>
<path d="M6590 4259 c0 -5 5 -7 10 -4 6 3 10 8 10 11 0 2 -4 4 -10 4 -5 0 -10
-5 -10 -11z"/>
<path d="M7110 4245 c-14 -16 -10 -18 14 -9 9 3 16 10 16 15 0 14 -16 11 -30
-6z"/>
<path d="M7521 4226 c-9 -11 -9 -16 0 -21 10 -7 28 10 29 28 0 12 -17 8 -29
-7z"/>
<path d="M3103 4195 c-6 -15 -7 -27 -2 -31 11 -6 22 19 17 40 -2 11 -6 9 -15
-9z"/>
<path d="M7645 4163 c-4 -19 -1 -32 14 -47 l21 -20 0 47 c0 53 -23 67 -35 20z"/>
<path d="M7098 4168 c-27 -9 -36 -22 -20 -31 8 -5 58 31 51 37 -2 2 -16 -1
-31 -6z"/>
<path d="M3151 4146 c-8 -13 -10 -29 -7 -35 13 -20 21 -11 23 24 2 41 0 43
-16 11z"/>
<path d="M7250 4140 c-9 -16 -8 -20 5 -20 8 0 15 -4 15 -10 0 -5 7 -10 15 -10
8 0 15 7 15 15 0 9 -6 12 -16 8 -13 -5 -15 -2 -9 15 8 28 -11 29 -25 2z"/>
<path d="M3080 4124 c0 -8 5 -12 10 -9 6 4 8 11 5 16 -9 14 -15 11 -15 -7z"/>
<path d="M6747 4104 c-11 -14 -17 -28 -14 -30 3 -3 15 9 27 25 12 17 18 31 13
31 -4 0 -16 -12 -26 -26z"/>
<path d="M6803 4083 c-20 -7 -15 -23 7 -23 11 0 20 4 20 9 0 13 -12 19 -27 14z"/>
<path d="M6126 4049 c-18 -35 -20 -49 -8 -49 12 1 42 69 32 75 -4 3 -16 -9
-24 -26z"/>
<path d="M7665 4020 c3 -5 8 -10 11 -10 2 0 4 5 4 10 0 6 -5 10 -11 10 -5 0
-7 -4 -4 -10z"/>
<path d="M7276 3975 c-3 -8 -1 -15 3 -15 5 0 11 7 15 15 3 8 1 15 -3 15 -5 0
-11 -7 -15 -15z"/>
<path d="M7620 3951 c0 -12 39 -21 45 -11 3 4 -2 11 -11 14 -22 8 -34 7 -34
-3z"/>
<path d="M43 3825 c-3 -9 -3 -18 0 -21 9 -9 27 6 27 22 0 19 -19 18 -27 -1z"/>
<path d="M4538 3795 c-2 -3 -55 -7 -116 -9 -107 -4 -113 -5 -154 -36 -37 -28
-39 -31 -16 -26 16 4 28 1 30 -6 5 -13 274 -31 316 -21 12 3 28 1 35 -5 6 -6
45 -10 85 -10 60 0 71 2 62 13 -7 8 -32 17 -56 21 -24 3 -47 11 -50 16 -4 5
-24 6 -47 2 -36 -6 -40 -4 -30 8 22 26 -34 78 -59 53z m26 -40 c16 -12 17 -15
4 -15 -24 0 -48 11 -48 21 0 13 23 10 44 -6z"/>
<path d="M4853 3786 c4 -11 -7 -15 -51 -18 -31 -2 -62 0 -69 4 -6 5 -14 5 -17
-1 -4 -5 7 -19 23 -30 18 -13 32 -17 36 -11 9 14 21 13 39 -5 9 -9 35 -15 68
-16 87 -2 88 -2 86 27 -2 19 -13 31 -42 45 -48 23 -80 25 -73 5z m-73 -36 c0
-5 -4 -10 -10 -10 -5 0 -10 5 -10 10 0 6 5 10 10 10 6 0 10 -4 10 -10z"/>
<path d="M66 3682 c-12 -19 2 -62 20 -62 8 0 12 5 9 11 -4 6 -10 22 -14 37 -5
18 -10 22 -15 14z"/>
<path d="M4455 3625 c-112 -11 -212 -33 -243 -54 -11 -6 -10 -10 4 -15 15 -6
13 -10 -14 -26 -37 -23 -42 -35 -9 -25 41 12 168 17 181 6 9 -7 24 -7 52 1 21
6 47 10 57 9 9 -1 17 3 17 10 0 17 102 3 153 -21 25 -12 49 -17 61 -13 12 3
34 7 51 7 36 1 46 30 18 52 -17 15 -17 15 5 11 12 -3 22 -3 22 -1 0 14 -59 37
-126 48 -43 8 -86 16 -94 19 -8 2 -69 -1 -135 -8z m282 -51 c-3 -3 -12 -4 -19
-1 -8 3 -5 6 6 6 11 1 17 -2 13 -5z"/>
<path d="M5406 3585 c-3 -9 -6 -26 -5 -38 1 -16 4 -12 10 12 10 34 6 55 -5 26z"/>
<path d="M4160 3550 c-8 -5 -10 -10 -5 -10 6 0 17 5 25 10 8 5 11 10 5 10 -5
0 -17 -5 -25 -10z"/>
<path d="M7527 3464 c-8 -8 1 -24 14 -24 5 0 9 7 9 15 0 15 -12 20 -23 9z"/>
<path d="M5375 3049 c-13 -19 -46 -138 -52 -179 l-5 -45 33 35 c19 20 50 48
69 64 19 15 35 35 36 43 2 9 7 20 13 26 19 19 12 46 -11 51 -55 11 -79 13 -83
5z"/>
<path d="M4445 2865 c93 -88 135 -120 118 -92 -13 23 -185 177 -197 177 -6 0
30 -39 79 -85z"/>
<path d="M7220 2915 c-18 -22 0 -38 34 -29 18 4 26 12 24 23 -4 22 -42 26 -58
6z"/>
<path d="M7271 2855 c1 -19 18 -51 18 -35 0 8 -4 22 -9 30 -5 8 -9 11 -9 5z"/>
<path d="M6100 2770 c0 -11 -4 -20 -10 -20 -5 0 -10 -4 -10 -10 0 -16 26 -11
43 8 13 14 14 21 5 30 -18 18 -28 15 -28 -8z"/>
<path d="M7195 2760 c-3 -5 -1 -10 4 -10 6 0 11 5 11 10 0 6 -2 10 -4 10 -3 0
-8 -4 -11 -10z"/>
<path d="M7300 2734 c0 -22 2 -25 15 -14 8 7 15 19 15 26 0 8 -7 14 -15 14
-10 0 -15 -10 -15 -26z"/>
<path d="M6163 2743 c9 -2 23 -2 30 0 6 3 -1 5 -18 5 -16 0 -22 -2 -12 -5z"/>
<path d="M6142 2707 c-14 -17 2 -42 22 -34 20 8 21 47 2 47 -7 0 -18 -6 -24
-13z"/>
<path d="M5865 2690 c-3 -5 -1 -10 4 -10 6 0 11 5 11 10 0 6 -2 10 -4 10 -3 0
-8 -4 -11 -10z"/>
<path d="M6760 2666 c0 -16 -7 -37 -16 -47 -15 -16 -14 -20 3 -43 21 -30 50
-30 45 -1 -2 11 -3 30 -3 43 1 13 -6 35 -14 50 l-14 27 -1 -29z"/>
<path d="M4679 2627 c16 -26 19 -45 16 -87 -15 -185 -15 -204 0 -189 20 21 45
168 36 211 -9 38 -16 51 -40 80 -26 30 -34 20 -12 -15z"/>
<path d="M1270 2620 c0 -5 5 -10 10 -10 6 0 10 5 10 10 0 6 -4 10 -10 10 -5 0
-10 -4 -10 -10z"/>
<path d="M5651 2611 c-13 -10 -19 -21 -14 -24 5 -3 17 3 27 14 23 27 17 32
-13 10z"/>
<path d="M5567 2569 c4 -13 8 -18 11 -10 2 7 -1 18 -6 23 -8 8 -9 4 -5 -13z"/>
<path d="M6823 2565 c-9 -20 -8 -25 3 -25 8 0 14 10 14 25 0 31 -2 31 -17 0z"/>
<path d="M5703 2540 c-10 -25 -16 -30 -32 -25 -18 6 -20 3 -15 -23 5 -23 1
-32 -20 -45 -29 -19 -34 -37 -11 -37 10 0 15 -10 15 -31 0 -17 4 -28 10 -24 6
3 10 16 10 28 0 12 12 33 26 46 13 13 24 31 23 40 -1 9 1 28 5 43 12 42 3 66
-11 28z"/>
<path d="M7269 2563 c-11 -3 -15 -12 -11 -28 2 -14 7 -25 9 -25 11 0 42 43 37
51 -5 9 -8 10 -35 2z"/>
<path d="M5426 2543 c-6 -14 -5 -15 5 -6 7 7 10 15 7 18 -3 3 -9 -2 -12 -12z"/>
<path d="M4415 2530 l-30 -7 44 -19 c38 -17 41 -21 27 -33 -9 -7 -16 -19 -16
-25 0 -20 -49 -80 -72 -89 -35 -13 -15 -17 27 -6 51 14 97 46 135 95 18 21 41
42 52 46 25 10 19 30 -13 39 -31 9 -116 9 -154 -1z"/>
<path d="M4644 2526 c-8 -22 3 -33 18 -18 9 9 9 15 0 24 -9 9 -13 7 -18 -6z"/>
<path d="M5472 2514 c-7 -8 -12 -19 -10 -23 2 -5 11 2 21 15 19 26 10 33 -11
8z"/>
<path d="M5610 2500 c0 -5 5 -10 11 -10 5 0 7 5 4 10 -3 6 -8 10 -11 10 -2 0
-4 -4 -4 -10z"/>
<path d="M6295 2485 c4 -11 9 -27 12 -37 3 -9 13 -18 23 -21 25 -6 15 25 -18
55 -23 21 -24 21 -17 3z"/>
<path d="M6356 2491 c-4 -7 -5 -15 -2 -18 9 -9 19 4 14 18 -4 11 -6 11 -12 0z"/>
<path d="M1442 2469 c-44 -23 -50 -29 -25 -29 21 0 73 35 63 42 -3 2 -20 -4
-38 -13z"/>
<path d="M5471 2456 c-16 -17 -19 -26 -10 -31 7 -5 19 2 30 16 33 43 18 55
-20 15z"/>
<path d="M1235 2444 c-21 -20 -25 -28 -16 -37 10 -9 16 -7 26 8 8 11 22 28 31
38 29 29 -8 21 -41 -9z"/>
<path d="M5530 2445 c0 -8 5 -15 10 -15 6 0 10 7 10 15 0 8 -4 15 -10 15 -5 0
-10 -7 -10 -15z"/>
<path d="M0 2434 c0 -8 5 -12 10 -9 6 4 8 11 5 16 -9 14 -15 11 -15 -7z"/>
<path d="M7246 2417 c3 -10 9 -15 12 -12 3 3 0 11 -7 18 -10 9 -11 8 -5 -6z"/>
<path d="M5399 2384 c-10 -13 -10 -19 0 -36 10 -17 10 -23 -5 -39 -9 -11 -15
-21 -12 -24 10 -10 35 6 46 30 9 18 8 24 -4 29 -11 4 -12 10 -4 25 5 11 10 22
10 25 0 12 -18 6 -31 -10z"/>
<path d="M5555 2375 c-23 -19 -27 -27 -17 -37 9 -9 17 -9 38 2 14 8 21 16 16
18 -5 1 -8 12 -5 22 7 25 5 25 -32 -5z"/>
<path d="M1837 2363 c-4 -3 -7 -11 -7 -17 0 -6 5 -5 12 2 6 6 9 14 7 17 -3 3
-9 2 -12 -2z"/>
<path d="M6216 2363 c-11 -11 -6 -23 8 -23 8 0 17 4 20 9 7 10 -19 23 -28 14z"/>
<path d="M4196 2351 c-3 -5 1 -14 8 -21 12 -9 17 -7 26 9 9 18 8 21 -9 21 -11
0 -22 -4 -25 -9z"/>
<path d="M5835 2339 c-4 -6 -5 -13 -2 -16 7 -7 27 6 27 18 0 12 -17 12 -25 -2z"/>
<path d="M5470 2320 c0 -8 -9 -21 -20 -28 -24 -14 -26 -32 -5 -32 8 0 15 5 15
10 0 14 54 12 68 -2 9 -9 12 -8 12 8 0 30 -16 48 -36 40 -10 -4 -21 -1 -26 6
-6 10 -8 10 -8 -2z"/>
<path d="M3729 2315 c-1 -5 -3 -14 -4 -20 -2 -5 -3 -14 -4 -19 0 -5 -12 1 -26
14 -19 18 -28 21 -37 12 -9 -9 -7 -13 5 -18 13 -5 14 -10 4 -31 -13 -29 1 -43
48 -43 l30 0 -24 13 c-39 20 -38 37 3 37 23 0 36 5 36 13 0 17 -29 55 -31 42z"/>
<path d="M6615 2280 c-8 -13 12 -40 31 -40 19 0 18 7 -5 31 -13 14 -21 17 -26
9z"/>
<path d="M5345 2264 c-9 -9 -23 -27 -31 -40 -9 -12 -21 -21 -27 -19 -17 6 -45
-18 -57 -49 -9 -24 -15 -28 -40 -24 -17 3 -30 1 -30 -2 0 -10 -81 -40 -108
-40 -45 0 -67 -102 -37 -174 8 -20 13 -37 10 -37 -3 -1 -11 -2 -17 -3 -7 0
-14 -18 -16 -38 -2 -25 -8 -38 -18 -38 -8 0 -19 -11 -24 -25 -5 -13 -23 -39
-39 -56 -17 -17 -28 -35 -25 -40 8 -13 34 -11 34 2 0 6 6 9 14 6 8 -3 20 1 26
9 7 8 19 14 26 14 8 0 14 6 14 14 0 8 14 24 30 36 17 12 37 35 45 51 12 22 23
29 45 29 30 0 42 22 20 35 -17 11 -12 38 6 31 20 -8 74 48 74 75 0 9 9 28 20
41 10 12 31 38 46 56 20 25 29 30 40 21 17 -14 33 -4 27 19 -6 25 31 68 66 75
17 4 35 15 40 26 10 17 7 20 -28 26 -22 4 -42 13 -45 21 -7 18 -21 18 -41 -2z"/>
<path d="M7260 2256 c0 -9 5 -16 10 -16 6 0 10 4 10 9 0 6 -4 13 -10 16 -5 3
-10 -1 -10 -9z"/>
<path d="M1895 2230 c-3 -5 -1 -10 4 -10 6 0 11 5 11 10 0 6 -2 10 -4 10 -3 0
-8 -4 -11 -10z"/>
<path d="M3596 2205 c4 -8 11 -15 16 -15 6 0 5 6 -2 15 -7 8 -14 15 -16 15 -2
0 -1 -7 2 -15z"/>
<path d="M7156 2178 c-3 -13 -1 -27 4 -32 7 -7 10 1 10 22 0 37 -5 41 -14 10z"/>
<path d="M6420 2153 c-21 -8 -39 -35 -33 -49 2 -6 15 -11 29 -11 21 0 24 4 24
33 0 19 -1 34 -2 33 -2 0 -10 -3 -18 -6z"/>
<path d="M5956 2105 c4 -8 10 -12 15 -9 11 6 2 24 -11 24 -5 0 -7 -7 -4 -15z"/>
<path d="M2090 2090 c0 -5 5 -10 11 -10 5 0 7 5 4 10 -3 6 -8 10 -11 10 -2 0
-4 -4 -4 -10z"/>
<path d="M6396 2070 c-12 -29 -1 -85 17 -88 21 -4 22 29 3 73 -10 22 -15 26
-20 15z"/>
<path d="M1890 2060 c0 -5 5 -10 10 -10 6 0 10 5 10 10 0 6 -4 10 -10 10 -5 0
-10 -4 -10 -10z"/>
<path d="M7602 2024 c9 -9 21 -13 27 -10 20 13 11 26 -16 26 -25 0 -26 -1 -11
-16z"/>
<path d="M2060 2000 c0 -5 5 -10 10 -10 6 0 10 5 10 10 0 6 -4 10 -10 10 -5 0
-10 -4 -10 -10z"/>
<path d="M6510 2006 c0 -2 7 -6 15 -10 8 -3 15 -1 15 4 0 6 -7 10 -15 10 -8 0
-15 -2 -15 -4z"/>
<path d="M5240 1956 c0 -9 5 -16 10 -16 6 0 10 4 10 9 0 6 -4 13 -10 16 -5 3
-10 -1 -10 -9z"/>
<path d="M6399 1954 c-4 -44 -2 -54 6 -51 6 1 9 13 7 25 -3 20 0 23 17 17 12
-3 21 -2 21 3 0 16 -50 21 -51 6z"/>
<path d="M2166 1951 c-4 -7 -5 -15 -2 -18 9 -9 19 4 14 18 -4 11 -6 11 -12 0z"/>
<path d="M7340 1919 c0 -5 5 -7 10 -4 6 3 10 8 10 11 0 2 -4 4 -10 4 -5 0 -10
-5 -10 -11z"/>
<path d="M6442 1890 c0 -19 2 -27 5 -17 2 9 2 25 0 35 -3 9 -5 1 -5 -18z"/>
<path d="M1891 1877 c5 -18 9 -33 9 -34 0 -2 7 -3 15 -3 8 0 15 7 15 15 0 8
-4 15 -10 15 -5 0 -10 6 -10 14 0 8 -6 16 -14 19 -12 5 -12 0 -5 -26z"/>
<path d="M2146 1902 c-3 -6 -1 -14 5 -17 14 -9 20 -2 10 14 -6 8 -11 9 -15 3z"/>
<path d="M7310 1885 c-9 -11 -9 -21 1 -45 18 -39 27 -38 35 4 9 51 -10 73 -36
41z"/>
<path d="M2235 1870 c-3 -5 -1 -10 4 -10 6 0 11 5 11 10 0 6 -2 10 -4 10 -3 0
-8 -4 -11 -10z"/>
<path d="M2335 1850 c-3 -5 -1 -10 4 -10 6 0 11 5 11 10 0 6 -2 10 -4 10 -3 0
-8 -4 -11 -10z"/>
<path d="M6352 1824 c1 -9 9 -19 16 -22 9 -3 13 2 10 14 -1 9 -9 19 -16 22 -9
3 -13 -2 -10 -14z"/>
<path d="M2351 1814 c0 -11 3 -14 6 -6 3 7 2 16 -1 19 -3 4 -6 -2 -5 -13z"/>
<path d="M6414 1803 c4 -16 10 -40 13 -55 3 -17 10 -25 18 -21 10 3 11 11 4
30 -5 13 -9 35 -9 49 0 15 -6 24 -16 24 -13 0 -15 -6 -10 -27z"/>
<path d="M1920 1791 c0 -17 12 -41 21 -41 5 0 9 11 9 25 0 16 -6 25 -15 25 -8
0 -15 -4 -15 -9z"/>
<path d="M2002 1778 c-18 -18 -14 -49 7 -55 11 -3 21 -14 23 -24 4 -26 22 -29
26 -4 2 13 -5 24 -20 30 -17 8 -22 17 -20 38 3 30 1 32 -16 15z"/>
<path d="M2455 1740 c3 -5 8 -10 11 -10 2 0 4 5 4 10 0 6 -5 10 -11 10 -5 0
-7 -4 -4 -10z"/>
<path d="M4735 1631 c-3 -5 -1 -12 5 -16 5 -3 10 1 10 9 0 18 -6 21 -15 7z"/>
<path d="M2242 1618 c-14 -14 -16 -28 -3 -28 5 0 11 9 14 20 6 23 5 24 -11 8z"/>
<path d="M2930 1568 c0 -9 5 -20 10 -23 13 -8 13 5 0 25 -8 13 -10 13 -10 -2z"/>
<path d="M4380 1570 c-37 -7 -80 -30 -80 -42 0 -16 61 -7 79 11 10 10 25 21
32 23 25 9 4 14 -31 8z"/>
<path d="M4787 1553 c-10 -9 -8 -33 2 -33 5 0 11 9 14 20 5 20 -3 26 -16 13z"/>
<path d="M2885 1521 c-7 -12 25 -30 43 -24 6 3 12 11 12 19 0 16 -45 20 -55 5z"/>
<path d="M2637 1483 c-16 -3 -27 -9 -24 -16 6 -18 21 -17 47 3 14 11 21 19 15
18 -5 0 -23 -3 -38 -5z"/>
<path d="M3310 1365 c-8 -9 -8 -15 -2 -15 12 0 26 19 19 26 -2 2 -10 -2 -17
-11z"/>
<path d="M2902 1236 c-7 -16 -8 -26 -1 -26 12 0 22 25 17 41 -2 6 -9 0 -16
-15z"/>
<path d="M4140 1250 c0 -5 5 -10 11 -10 5 0 7 5 4 10 -3 6 -8 10 -11 10 -2 0
-4 -4 -4 -10z"/>
<path d="M4017 1211 c3 -12 10 -21 15 -21 13 0 6 32 -9 37 -7 3 -9 -3 -6 -16z"/>
<path d="M2700 1181 c0 -6 4 -13 10 -16 6 -3 7 1 4 9 -7 18 -14 21 -14 7z"/>
<path d="M2915 1180 c-9 -15 3 -30 20 -24 7 3 11 12 8 20 -6 16 -19 18 -28 4z"/>
<path d="M3895 1180 c-3 -5 -1 -10 4 -10 6 0 11 5 11 10 0 6 -2 10 -4 10 -3 0
-8 -4 -11 -10z"/>
<path d="M2840 1170 c0 -5 5 -10 11 -10 5 0 7 5 4 10 -3 6 -8 10 -11 10 -2 0
-4 -4 -4 -10z"/>
<path d="M2968 1138 c7 -7 12 -20 12 -30 0 -10 5 -18 10 -18 6 0 10 6 10 14 0
26 -12 46 -28 46 -12 0 -13 -3 -4 -12z"/>
<path d="M5067 1123 c-10 -9 -9 -23 2 -23 5 0 11 7 15 15 5 15 -5 20 -17 8z"/>
<path d="M385 1080 c3 -5 8 -10 11 -10 2 0 4 5 4 10 0 6 -5 10 -11 10 -5 0 -7
-4 -4 -10z"/>
<path d="M3696 1077 c-17 -12 -17 -15 -2 -29 21 -22 20 -28 -3 -28 -33 0 -33
-17 0 -40 24 -18 35 -20 52 -12 22 11 22 11 2 17 -21 6 -27 38 -13 61 4 6 2
19 -5 28 -10 14 -15 15 -31 3z"/>
<path d="M2980 1055 c0 -8 5 -15 10 -15 6 0 10 7 10 15 0 8 -4 15 -10 15 -5 0
-10 -7 -10 -15z"/>
<path d="M1105 1039 c-11 -17 1 -21 15 -4 8 9 8 15 2 15 -6 0 -14 -5 -17 -11z"/>
<path d="M3045 1030 c-3 -5 -1 -10 4 -10 6 0 11 5 11 10 0 6 -2 10 -4 10 -3 0
-8 -4 -11 -10z"/>
<path d="M2946 1014 c-9 -24 0 -29 18 -11 8 8 12 17 9 21 -11 10 -21 7 -27
-10z"/>
<path d="M810 989 c0 -5 5 -7 10 -4 6 3 10 8 10 11 0 2 -4 4 -10 4 -5 0 -10
-5 -10 -11z"/>
<path d="M3540 982 c0 -5 7 -13 16 -16 10 -4 14 -1 12 6 -5 15 -28 23 -28 10z"/>
<path d="M1605 930 c-21 -34 -23 -43 -13 -60 7 -11 16 -20 20 -20 11 0 21 47
14 59 -4 6 1 22 10 36 10 15 12 25 5 25 -6 0 -22 -18 -36 -40z"/>
<path d="M3645 939 c-11 -4 -14 -8 -7 -8 7 -1 17 -13 23 -27 13 -35 22 -24 12
14 -7 24 -11 28 -28 21z"/>
<path d="M927 923 c-12 -12 -7 -22 8 -17 8 4 15 10 15 15 0 11 -14 12 -23 2z"/>
<path d="M6050 897 c0 -28 -4 -36 -24 -41 -27 -7 -38 -26 -26 -46 11 -18 54
15 68 52 8 21 17 28 37 28 20 0 26 4 23 18 -2 12 -14 18 -41 20 -36 3 -37 2
-37 -31z"/>
<path d="M2161 896 c-8 -9 -11 -19 -7 -23 9 -9 29 13 24 27 -2 8 -8 7 -17 -4z"/>
<path d="M530 894 c0 -17 17 -36 24 -26 3 5 -1 15 -9 22 -8 7 -15 9 -15 4z"/>
<path d="M3180 886 c0 -9 5 -16 10 -16 6 0 10 4 10 9 0 6 -4 13 -10 16 -5 3
-10 -1 -10 -9z"/>
<path d="M3160 835 c0 -8 7 -15 15 -15 8 0 15 7 15 15 0 8 -7 15 -15 15 -8 0
-15 -7 -15 -15z"/>
<path d="M1050 820 c0 -11 4 -20 10 -20 5 0 7 -7 4 -15 -4 -8 -1 -15 5 -15 6
0 11 5 11 10 0 6 6 10 14 10 8 0 14 10 14 25 0 21 -5 25 -29 25 -22 0 -29 -5
-29 -20z"/>
<path d="M1574 795 c-14 -14 -29 -25 -34 -25 -18 0 -10 -18 15 -38 14 -11 25
-25 25 -31 0 -6 4 -11 9 -11 14 0 21 -44 8 -52 -6 -4 -17 -2 -24 4 -10 8 -13
5 -13 -15 0 -14 5 -29 11 -33 6 -3 8 -15 6 -26 -8 -30 12 -55 39 -50 27 5 33
24 7 20 -14 -2 -18 5 -19 32 -2 50 4 67 26 73 18 5 18 6 2 40 -9 20 -27 40
-39 46 -28 13 -29 31 -3 54 19 16 27 37 15 37 -3 0 -17 -11 -31 -25z"/>
<path d="M2540 780 c0 -5 5 -10 11 -10 5 0 7 5 4 10 -3 6 -8 10 -11 10 -2 0
-4 -4 -4 -10z"/>
<path d="M5997 781 c-17 -6 -18 -8 -3 -20 18 -15 29 -10 24 12 -2 9 -9 12 -21
8z"/>
<path d="M2060 765 c0 -9 5 -15 11 -13 6 2 11 8 11 13 0 5 -5 11 -11 13 -6 2
-11 -4 -11 -13z"/>
<path d="M3480 764 c0 -8 5 -12 10 -9 6 3 10 10 10 16 0 5 -4 9 -10 9 -5 0
-10 -7 -10 -16z"/>
<path d="M1104 733 c-11 -12 -13 -18 -5 -21 19 -6 41 6 41 23 0 20 -14 19 -36
-2z"/>
<path d="M3720 716 c0 -9 5 -16 10 -16 6 0 10 4 10 9 0 6 -4 13 -10 16 -5 3
-10 -1 -10 -9z"/>
<path d="M1456 687 c13 -45 23 -54 24 -21 0 20 -6 34 -16 38 -12 5 -14 1 -8
-17z"/>
<path d="M3100 693 c0 -13 5 -23 10 -23 13 0 13 11 0 30 -8 12 -10 11 -10 -7z"/>
<path d="M3400 699 c0 -5 5 -7 10 -4 6 3 10 8 10 11 0 2 -4 4 -10 4 -5 0 -10
-5 -10 -11z"/>
<path d="M1030 660 c-12 -16 -16 -30 -10 -30 6 0 13 7 17 16 3 9 15 14 29 12
13 -2 23 0 24 5 1 23 -2 27 -19 27 -11 0 -29 -13 -41 -30z"/>
<path d="M1360 635 c-7 -9 -8 -15 -2 -15 5 0 12 7 16 15 3 8 4 15 2 15 -2 0
-9 -7 -16 -15z"/>
<path d="M400 610 c0 -5 5 -10 10 -10 6 0 10 5 10 10 0 6 -4 10 -10 10 -5 0
-10 -4 -10 -10z"/>
<path d="M900 601 c0 -16 27 -31 44 -25 28 11 19 34 -14 34 -16 0 -30 -4 -30
-9z"/>
<path d="M3210 595 c-20 -24 -6 -28 15 -5 10 11 13 20 8 20 -6 0 -16 -7 -23
-15z"/>
<path d="M1430 591 c0 -21 13 -41 26 -41 15 0 17 10 8 34 -7 17 -34 22 -34 7z"/>
<path d="M877 574 c-4 -4 -7 -18 -7 -31 0 -28 23 -27 28 1 4 20 -11 40 -21 30z"/>
<path d="M5361 531 c-7 -5 -12 -14 -10 -20 2 -6 10 -2 17 9 14 22 13 23 -7 11z"/>
<path d="M1031 494 c0 -11 3 -14 6 -6 3 7 2 16 -1 19 -3 4 -6 -2 -5 -13z"/>
<path d="M1563 494 c-3 -8 -1 -25 5 -37 10 -20 11 -18 11 16 1 39 -5 48 -16
21z"/>
<path d="M6761 486 c-22 -40 -8 -45 27 -9 32 32 32 33 9 33 -15 0 -28 -9 -36
-24z"/>
<path d="M910 491 c0 -6 5 -13 10 -16 6 -4 8 -10 5 -15 -3 -5 -1 -11 5 -15 6
-4 10 6 10 24 0 21 -5 31 -15 31 -8 0 -15 -4 -15 -9z"/>
<path d="M1260 490 c0 -5 5 -10 10 -10 6 0 10 5 10 10 0 6 -4 10 -10 10 -5 0
-10 -4 -10 -10z"/>
<path d="M411 474 c0 -11 3 -14 6 -6 3 7 2 16 -1 19 -3 4 -6 -2 -5 -13z"/>
<path d="M1510 476 c0 -2 7 -6 15 -10 8 -3 15 -1 15 4 0 6 -7 10 -15 10 -8 0
-15 -2 -15 -4z"/>
<path d="M1164 429 c-10 -16 19 -20 34 -6 14 15 13 16 -7 14 -12 -1 -25 -5
-27 -8z"/>
<path d="M6616 395 c-20 -30 -20 -35 -1 -35 20 0 57 38 50 50 -11 17 -32 11
-49 -15z"/>
<path d="M1105 390 c-10 -11 -16 -22 -13 -25 3 -3 11 1 18 10 7 8 21 15 32 15
10 0 16 5 13 10 -10 16 -30 12 -50 -10z"/>
<path d="M1235 400 c-3 -5 -1 -10 4 -10 6 0 11 5 11 10 0 6 -2 10 -4 10 -3 0
-8 -4 -11 -10z"/>
<path d="M2235 350 c-16 -4 -41 -12 -55 -17 -25 -10 -25 -10 -3 -17 22 -7 87
16 99 35 6 10 1 10 -41 -1z"/>
<path d="M713 303 c-7 -2 -13 -9 -13 -15 0 -14 43 -6 48 10 4 12 -12 15 -35 5z"/>
<path d="M2911 264 c0 -11 3 -14 6 -6 3 7 2 16 -1 19 -3 4 -6 -2 -5 -13z"/>
<path d="M7525 261 c-3 -6 1 -11 9 -11 18 0 21 -16 6 -25 -15 -9 -12 -32 6
-39 22 -8 39 3 25 17 -16 16 -14 24 10 30 12 3 19 12 17 19 -6 16 -64 23 -73
9z"/>
<path d="M873 220 c-6 -15 -7 -26 -1 -29 15 -5 20 5 16 31 l-5 23 -10 -25z"/>
<path d="M530 220 c0 -5 7 -10 15 -10 8 0 15 5 15 10 0 6 -7 10 -15 10 -8 0
-15 -4 -15 -10z"/>
<path d="M805 220 c-3 -5 -1 -10 4 -10 6 0 11 5 11 10 0 6 -2 10 -4 10 -3 0
-8 -4 -11 -10z"/>
<path d="M466 211 c-4 -5 -2 -12 3 -15 5 -4 12 -2 15 3 4 5 2 12 -3 15 -5 4
-12 2 -15 -3z"/>
<path d="M700 170 c0 -5 7 -10 15 -10 8 0 15 5 15 10 0 6 -7 10 -15 10 -8 0
-15 -4 -15 -10z"/>
<path d="M7314 148 c3 -13 6 -32 7 -43 0 -16 2 -15 10 7 9 22 15 26 44 24 19
-2 32 1 29 6 -3 5 -13 6 -23 3 -9 -3 -26 2 -37 10 -27 21 -37 18 -30 -7z"/>
<path d="M2060 120 c0 -16 4 -30 9 -30 10 0 22 40 15 52 -11 18 -24 6 -24 -22z"/>
<path d="M6507 143 c-4 -3 -7 -11 -7 -17 0 -6 5 -5 12 2 6 6 9 14 7 17 -3 3
-9 2 -12 -2z"/>
<path d="M304 129 c-3 -6 -1 -16 5 -22 8 -8 11 -5 11 11 0 24 -5 28 -16 11z"/>
<path d="M528 133 c-24 -6 -23 -23 2 -23 11 0 20 7 20 15 0 8 -1 14 -2 14 -2
-1 -11 -3 -20 -6z"/>
<path d="M2202 110 c0 -16 4 -30 9 -30 5 0 9 14 9 30 0 17 -4 30 -8 30 -5 0
-9 -13 -10 -30z"/>
<path d="M4334 108 c-3 -5 -3 -20 0 -32 5 -20 26 -34 59 -40 4 0 12 -7 16 -15
5 -8 16 -11 26 -7 9 3 25 1 36 -4 15 -8 19 -7 19 4 0 16 -18 30 -39 31 -8 0
-15 8 -17 17 -1 10 -8 24 -16 31 -17 17 -77 27 -84 15z"/>
<path d="M250 95 c-16 -19 -3 -40 16 -24 15 13 19 39 5 39 -5 0 -14 -7 -21
-15z"/>
<path d="M691 79 c-7 -17 -11 -33 -8 -35 3 -3 13 6 23 21 10 16 13 30 8 35 -6
6 -15 -3 -23 -21z"/>
<path d="M6450 64 c-13 -33 -13 -31 10 -37 21 -5 29 16 10 28 -5 3 -7 12 -3
20 3 8 2 15 -1 15 -4 0 -11 -12 -16 -26z"/>
<path d="M290 65 c0 -8 5 -15 10 -15 6 0 10 7 10 15 0 8 -4 15 -10 15 -5 0
-10 -7 -10 -15z"/>
<path d="M7268 73 c7 -3 16 -2 19 1 4 3 -2 6 -13 5 -11 0 -14 -3 -6 -6z"/>
<path d="M2326 53 c-6 -14 -5 -15 5 -6 7 7 10 15 7 18 -3 3 -9 -2 -12 -12z"/>
<path d="M188 54 c-18 -18 21 -62 43 -48 15 9 10 34 -6 28 -9 -4 -15 0 -15 10
0 16 -11 21 -22 10z"/>
<path d="M2690 40 c0 -19 3 -21 12 -12 9 9 9 15 0 24 -9 9 -12 7 -12 -12z"/>
<path d="M365 40 c-3 -5 -1 -10 4 -10 6 0 11 5 11 10 0 6 -2 10 -4 10 -3 0 -8
-4 -11 -10z"/>
<path d="M295 10 c-4 -6 3 -10 14 -10 25 0 27 6 6 13 -8 4 -17 2 -20 -3z"/>
</g>
</svg>
